<svg width="102" height="48" viewBox="0 0 102 48" fill="none" xmlns="http://www.w3.org/2000/svg">
    <g clip-path="url(#clip0_337_3634)">
        <path d="M7.46997 23.6298C7.46997 23.6598 7.46997 23.7098 7.46997 23.7398H7.47997V23.5498C7.47997 23.5798 7.46997 23.6098 7.46997 23.6298Z" fill="#535453"/>
        <path d="M7.46997 23.6298C7.46997 23.6598 7.46997 23.7098 7.46997 23.7398H7.47997V23.5498C7.47997 23.5798 7.46997 23.6098 7.46997 23.6298Z" fill="#515251"/>
        <path d="M7.46997 23.6298C7.46997 23.6598 7.46997 23.7098 7.46997 23.7398H7.47997V23.5498C7.47997 23.5798 7.46997 23.6098 7.46997 23.6298Z" fill="#515251"/>
        <path d="M7.48003 23.5596V23.7396V23.6296C7.47003 23.6096 7.48003 23.5796 7.48003 23.5596Z" fill="#515251"/>
        <path d="M17.81 40.6298C27.0939 40.6298 34.62 33.1037 34.62 23.8198C34.62 14.5359 27.0939 7.00977 17.81 7.00977C8.52609 7.00977 1 14.5359 1 23.8198C1 33.1037 8.52609 40.6298 17.81 40.6298Z" fill="#CCCCCC"/>
        <path d="M20.29 24.1602C20.29 24.2002 20.29 24.2402 20.29 24.2802C20.29 24.3202 20.29 24.3502 20.29 24.3902V24.1602ZM20.29 24.1602C20.29 24.2002 20.29 24.2402 20.29 24.2802C20.29 24.3202 20.29 24.3502 20.29 24.3902V24.1602ZM20.29 24.1602C20.29 24.2002 20.29 24.2402 20.29 24.2802C20.29 24.3202 20.29 24.3502 20.29 24.3902V24.1602ZM20.29 24.1602C20.29 24.2002 20.29 24.2402 20.29 24.2802C20.29 24.3202 20.29 24.3502 20.29 24.3902V24.1602ZM20.29 24.1602C20.29 24.2002 20.29 24.2402 20.29 24.2802C20.29 24.3202 20.29 24.3502 20.29 24.3902V24.1602ZM20.29 24.1602C20.29 24.2002 20.29 24.2402 20.29 24.2802C20.29 24.3202 20.29 24.3502 20.29 24.3902V24.1602ZM20.29 24.1602C20.29 24.2002 20.29 24.2402 20.29 24.2802C20.29 24.3202 20.29 24.3502 20.29 24.3902V24.1602ZM20.29 24.1602C20.29 24.2002 20.29 24.2402 20.29 24.2802C20.29 24.3202 20.29 24.3502 20.29 24.3902V24.1602ZM20.29 24.2802C20.29 24.3202 20.29 24.3502 20.29 24.3902V24.1602H20.28C20.29 24.2002 20.29 24.2402 20.29 24.2802ZM20.29 24.1602C20.29 24.2002 20.29 24.2402 20.29 24.2802C20.29 24.3202 20.29 24.3502 20.29 24.3902V24.1602ZM20.29 24.1602C20.29 24.2002 20.29 24.2402 20.29 24.2802C20.29 24.3202 20.29 24.3502 20.29 24.3902V24.1602ZM20.29 24.1602C20.29 24.2002 20.29 24.2402 20.29 24.2802C20.29 24.3202 20.29 24.3502 20.29 24.3902V24.1602ZM20.29 24.1602C20.29 24.2002 20.29 24.2402 20.29 24.2802C20.29 24.3202 20.29 24.3502 20.29 24.3902V24.1602ZM20.29 24.1602C20.29 24.2002 20.29 24.2402 20.29 24.2802C20.29 24.3202 20.29 24.3502 20.29 24.3902V24.1602ZM20.29 24.1602C20.29 24.2002 20.29 24.2402 20.29 24.2802C20.29 24.3202 20.29 24.3502 20.29 24.3902V24.1602ZM20.29 24.1602C20.29 24.2002 20.29 24.2402 20.29 24.2802C20.29 24.3202 20.29 24.3502 20.29 24.3902V24.1602ZM20.29 24.1602C20.29 24.2002 20.29 24.2402 20.29 24.2802C20.29 24.3202 20.29 24.3502 20.29 24.3902V24.1602Z" fill="#93A3AC"/>
        <path d="M19.85 24.1602V24.3902C19.85 24.3502 19.85 24.3202 19.85 24.2802C19.84 24.2402 19.84 24.2002 19.85 24.1602Z" fill="#515251"/>
        <path d="M24.0001 17.9795C22.6101 17.9795 21.3201 18.4395 20.2901 19.2095C18.8501 20.2895 17.9001 21.9795 17.8201 23.8895C17.8101 23.9795 17.8101 24.0695 17.8101 24.1595C17.8101 24.2595 17.8101 24.3595 17.8201 24.4595V31.9895L20.2901 30.2295V29.1195C21.0101 29.6595 21.8501 30.0395 22.7601 30.2295C23.1601 30.3095 23.5701 30.3495 24.0001 30.3495C27.4201 30.3495 30.1801 27.5795 30.1801 24.1595C30.1901 20.7495 27.4201 17.9795 24.0001 17.9795ZM24.0001 27.8695C23.5701 27.8695 23.1501 27.7995 22.7601 27.6595C21.3801 27.1695 20.3801 25.8995 20.2901 24.3795C20.2901 24.3395 20.2901 24.3095 20.2901 24.2695C20.2901 24.2295 20.2901 24.1895 20.2901 24.1495C20.2901 24.0795 20.2901 24.0095 20.3001 23.9395C20.4101 21.9895 22.0201 20.4295 24.0101 20.4295C26.0601 20.4295 27.7201 22.0895 27.7201 24.1395C27.7101 26.2095 26.0501 27.8695 24.0001 27.8695Z" fill="#252929"/>
        <path d="M24 20.4502C22.02 20.4502 20.4 22.0002 20.29 23.9602C20.29 24.0302 20.28 24.1002 20.28 24.1702H20.29V24.4002C20.38 25.9202 21.39 27.1902 22.76 27.6802C23.15 27.8202 23.56 27.8902 24 27.8902C26.05 27.8902 27.71 26.2302 27.71 24.1802C27.71 22.1102 26.05 20.4502 24 20.4502ZM24 25.4002C23.34 25.4002 22.8 24.8802 22.76 24.2302V24.1702C22.76 23.4902 23.31 22.9302 24 22.9302C24.68 22.9302 25.24 23.4802 25.24 24.1702C25.24 24.8502 24.68 25.4002 24 25.4002Z" fill="#F0C527"/>
        <path d="M11.63 17.92C11.2 17.92 10.79 17.96 10.39 18.05C9.47995 18.23 8.63995 18.62 7.91995 19.16V18.05L5.44995 16.29V23.85C5.44995 23.94 5.44995 24.03 5.44995 24.12C5.44995 24.21 5.44995 24.3 5.44995 24.39C5.52995 26.3 6.47995 27.99 7.91995 29.07C8.94995 29.84 10.24 30.3 11.63 30.3C15.05 30.3 17.81 27.53 17.81 24.12C17.81 20.69 15.05 17.92 11.63 17.92ZM11.63 27.82C9.64995 27.82 8.02995 26.27 7.91995 24.32C7.91995 24.25 7.90995 24.18 7.90995 24.11C7.90995 24.07 7.90995 24.03 7.90995 24C7.90995 23.97 7.90995 23.95 7.90995 23.93C7.98995 22.39 8.98995 21.11 10.38 20.62C10.77 20.48 11.18 20.41 11.62 20.41C13.67 20.41 15.33 22.07 15.33 24.12C15.34 26.16 13.68 27.82 11.63 27.82Z" fill="#252929"/>
        <path d="M11.6299 20.3896C11.1999 20.3896 10.7799 20.4696 10.3899 20.5996C9.00992 21.0896 7.99992 22.3796 7.91992 23.9196V24.1096C7.91992 24.1796 7.91992 24.2496 7.92992 24.3196C8.03992 26.2696 9.64992 27.8196 11.6399 27.8196C13.6899 27.8196 15.3499 26.1596 15.3499 24.1096C15.3399 22.0496 13.6799 20.3896 11.6299 20.3896ZM11.6299 25.3396C10.9499 25.3396 10.3899 24.7896 10.3899 24.0996V24.0396C10.4199 23.3896 10.9599 22.8696 11.6299 22.8696C12.3099 22.8696 12.8699 23.4196 12.8699 24.1096C12.8699 24.7896 12.3099 25.3396 11.6299 25.3396Z" fill="#F0C527"/>
        <path d="M24 22.9297C23.32 22.9297 22.76 23.4797 22.76 24.1697V24.2297C22.79 24.8797 23.33 25.3997 24 25.3997C24.68 25.3997 25.24 24.8497 25.24 24.1597C25.24 23.4797 24.68 22.9297 24 22.9297Z" fill="#252929"/>
        <path d="M11.6299 22.9297C10.9499 22.9297 10.3899 23.4797 10.3899 24.1697V24.2297C10.4199 24.8797 10.9599 25.3997 11.6299 25.3997C12.3099 25.3997 12.8699 24.8497 12.8699 24.1597C12.8699 23.4797 12.3099 22.9297 11.6299 22.9297Z" fill="#252929"/>
        <path d="M7.47997 23.5596V23.7496H7.46997C7.46997 23.7096 7.46997 23.6696 7.46997 23.6396C7.46997 23.6096 7.47997 23.5796 7.47997 23.5596Z" fill="#647884"/>
        <path d="M51.0999 20.4102C51.0399 20.3502 50.99 20.2902 50.93 20.2302C50.89 20.1902 50.8499 20.1502 50.7999 20.1102C50.7799 20.0902 50.7499 20.0602 50.7299 20.0402C50.5499 19.8802 50.3699 19.7302 50.1699 19.6002C50.1199 19.5702 50.0699 19.5302 50.0099 19.5002C49.9899 19.4902 49.97 19.4702 49.95 19.4602C49.9 19.4302 49.84 19.4002 49.79 19.3702C49.78 19.3602 49.76 19.3502 49.75 19.3502C49.69 19.3202 49.63 19.2902 49.57 19.2602C49.56 19.2602 49.55 19.2502 49.54 19.2502C49.48 19.2202 49.4099 19.1902 49.3499 19.1702C49.3399 19.1702 49.34 19.1702 49.33 19.1602C49.27 19.1402 49.2099 19.1102 49.1399 19.0902C49.1199 19.0802 49.1 19.0802 49.09 19.0702C49.03 19.0502 48.96 19.0302 48.9 19.0102C48.89 19.0102 48.8799 19.0002 48.8699 19.0002C48.7199 18.9602 48.56 18.9202 48.4 18.8902C48.32 18.8802 48.24 18.8602 48.15 18.8502C48.08 18.8402 48 18.8302 47.93 18.8202C47.92 18.8202 47.8999 18.8202 47.8899 18.8202C47.8099 18.8102 47.7199 18.8102 47.6399 18.8102C47.5499 18.8102 47.4599 18.8002 47.3699 18.8002C47.2799 18.8002 47.19 18.8002 47.11 18.8102C47.03 18.8102 46.95 18.8202 46.88 18.8202C46.86 18.8202 46.84 18.8202 46.82 18.8302C46.75 18.8402 46.6799 18.8402 46.6199 18.8502H46.61C46.54 18.8602 46.47 18.8702 46.4 18.8802C46.38 18.8802 46.36 18.8902 46.33 18.8902C46.26 18.9002 46.19 18.9202 46.13 18.9302C46.06 18.9502 45.9899 18.9602 45.9199 18.9802C45.9099 18.9802 45.91 18.9802 45.9 18.9902C45.83 19.0102 45.75 19.0302 45.68 19.0602C45.61 19.0802 45.5299 19.1102 45.4599 19.1402C44.7299 19.3702 44.0899 19.7602 43.5499 20.3102V15.8702L41.95 14.7002C41.95 14.7002 41.95 21.7602 41.95 24.4102C41.95 24.8902 42 25.3502 42.09 25.7802C42.3 26.7402 42.72 27.5902 43.38 28.3202C44.33 29.3902 45.5799 29.9202 47.1199 29.9202C47.9699 29.9202 48.72 29.7602 49.36 29.4402H49.3699C49.9699 29.2102 50.49 28.8702 50.95 28.4102C51.01 28.3502 51.0599 28.2902 51.1199 28.2302C52.0699 27.1702 52.5499 25.8702 52.5499 24.3202C52.5299 22.7702 52.0499 21.4602 51.0999 20.4102ZM50.0499 27.2702C49.3799 28.0702 48.47 28.4702 47.31 28.4702C46.62 28.4702 46.0099 28.3202 45.4799 28.0302C45.0699 27.8302 44.71 27.5502 44.41 27.1802C43.77 26.4302 43.45 25.4702 43.45 24.3102C43.45 23.1602 43.77 22.2002 44.41 21.4402C45.08 20.6402 45.99 20.2402 47.15 20.2402C47.84 20.2402 48.4499 20.3902 48.9799 20.6802C49.3899 20.8802 49.75 21.1602 50.06 21.5302C50.7 22.2802 51.02 23.2402 51.02 24.4002C51.01 25.5602 50.6899 26.5102 50.0499 27.2702Z" fill="#252929"/>
        <path d="M56.2901 15.0801V17.1801H54.5601V15.0801H56.2901ZM54.6201 18.9701H56.2201V29.6601H54.6201V18.9701Z" fill="#252929"/>
        <path d="M72.5601 24.3198C72.5601 23.6298 72.4401 23.0098 72.2001 22.4598C72.4301 23.0098 72.5501 23.6298 72.5501 24.3198C72.5501 25.0098 72.4401 25.6198 72.2101 26.1598C72.4501 25.6198 72.5601 24.9998 72.5601 24.3198ZM66.0401 21.4498C65.7601 21.7798 65.5401 22.1498 65.3801 22.5598C65.5401 22.1498 65.7701 21.7898 66.0701 21.4598C66.7801 20.6698 67.6901 20.2698 68.8101 20.2598H68.7701C67.6201 20.2598 66.7101 20.6498 66.0401 21.4498ZM66.0701 27.1898C65.8101 26.8998 65.6001 26.5798 65.4501 26.2298C65.6001 26.5798 65.8001 26.8998 66.0401 27.1798C66.7101 27.9798 67.6201 28.3798 68.7801 28.3798H68.8201C67.6901 28.3698 66.7801 27.9798 66.0701 27.1898ZM72.2001 22.4598C72.4301 23.0098 72.5501 23.6298 72.5501 24.3198C72.5501 25.0098 72.4401 25.6198 72.2101 26.1598C72.4501 25.6098 72.5701 24.9998 72.5701 24.3098C72.5601 23.6298 72.4401 23.0098 72.2001 22.4598ZM68.8101 28.3798H68.8401C69.9901 28.3798 70.9101 27.9798 71.5801 27.1798C71.8401 26.8698 72.0501 26.5298 72.2001 26.1598C72.0401 26.5298 71.8201 26.8698 71.5501 27.1798C70.8501 27.9698 69.9401 28.3698 68.8101 28.3798ZM68.8501 20.2598H68.8201C69.9401 20.2698 70.8601 20.6698 71.5601 21.4598C71.8301 21.7598 72.0401 22.0998 72.2001 22.4698C72.0501 22.0998 71.8401 21.7698 71.5801 21.4698C70.9201 20.6598 70.0001 20.2598 68.8501 20.2598ZM66.0401 21.4498C65.7601 21.7798 65.5401 22.1498 65.3801 22.5598C65.5401 22.1498 65.7701 21.7898 66.0701 21.4598C66.7801 20.6698 67.6901 20.2698 68.8101 20.2598H68.7701C67.6201 20.2598 66.7101 20.6498 66.0401 21.4498ZM66.0701 27.1898C65.8101 26.8998 65.6001 26.5798 65.4501 26.2298C65.6001 26.5798 65.8001 26.8998 66.0401 27.1798C66.7101 27.9798 67.6201 28.3798 68.7801 28.3798H68.8201C67.6901 28.3698 66.7801 27.9798 66.0701 27.1898ZM65.3701 22.5898C65.1601 23.1098 65.0601 23.6798 65.0601 24.3198C65.0601 24.9698 65.1701 25.5598 65.3801 26.0798C65.1801 25.5598 65.0801 24.9698 65.0801 24.3198C65.0801 23.6798 65.1801 23.1098 65.3701 22.5898Z" fill="#252929"/>
        <path d="M74.0701 23.1398C73.8901 22.0898 73.4401 21.1798 72.7401 20.3998C72.6501 20.2998 72.5601 20.2098 72.4701 20.1198C71.5501 19.2398 70.4001 18.7998 69.0001 18.7998C68.9301 18.7998 68.8701 18.7998 68.8001 18.7998C68.7501 18.7998 68.7001 18.7998 68.6401 18.7998C67.2401 18.7998 66.0901 19.2398 65.1701 20.1198C65.0801 20.2098 64.9901 20.2998 64.9001 20.3998C64.2001 21.1798 63.7501 22.0898 63.5701 23.1398V33.8998L65.1701 32.7498V28.5098C66.0901 29.3898 67.2801 29.8298 68.7501 29.8298H68.8901C70.3501 29.8298 71.5501 29.3898 72.4701 28.5098C72.5601 28.4198 72.6501 28.3298 72.7401 28.2298C73.4401 27.4498 73.8901 26.5398 74.0701 25.4898C74.1401 25.1198 74.1701 24.7198 74.1701 24.3198C74.1701 23.9098 74.1301 23.5198 74.0701 23.1398ZM72.2101 26.1598C72.0601 26.5298 71.8501 26.8698 71.5901 27.1798C70.9201 27.9798 70.0101 28.3798 68.8501 28.3798H68.7801C67.6301 28.3798 66.7101 27.9798 66.0401 27.1798C65.7901 26.8898 65.6001 26.5698 65.4501 26.2298C65.4301 26.1798 65.4101 26.1298 65.3901 26.0798C65.1801 25.5598 65.0701 24.9698 65.0701 24.3198C65.0701 23.6798 65.1701 23.1098 65.3801 22.5898C65.3801 22.5798 65.3901 22.5698 65.3901 22.5598C65.5501 22.1498 65.7701 21.7898 66.0501 21.4498C66.7201 20.6498 67.6301 20.2498 68.7901 20.2498H68.8601C70.0101 20.2498 70.9301 20.6498 71.6001 21.4498C71.8601 21.7498 72.0601 22.0898 72.2201 22.4498C72.4601 22.9998 72.5801 23.6198 72.5801 24.3098C72.5601 24.9998 72.4501 25.6198 72.2101 26.1598Z" fill="#252929"/>
        <path d="M72.2001 22.4598C72.4301 23.0098 72.5501 23.6298 72.5501 24.3198C72.5501 25.0098 72.4401 25.6198 72.2101 26.1598C72.4501 25.6098 72.5701 24.9998 72.5701 24.3098C72.5601 23.6298 72.4401 23.0098 72.2001 22.4598ZM68.8101 28.3798H68.8401C69.9901 28.3798 70.9101 27.9798 71.5801 27.1798C71.8401 26.8698 72.0501 26.5298 72.2001 26.1598C72.0401 26.5298 71.8201 26.8698 71.5501 27.1798C70.8501 27.9698 69.9401 28.3698 68.8101 28.3798ZM68.8501 20.2598H68.8201C69.9401 20.2698 70.8601 20.6698 71.5601 21.4598C71.8301 21.7598 72.0401 22.0998 72.2001 22.4698C72.0501 22.0998 71.8401 21.7698 71.5801 21.4698C70.9201 20.6598 70.0001 20.2598 68.8501 20.2598ZM66.0401 21.4498C65.7601 21.7798 65.5401 22.1498 65.3801 22.5598C65.5401 22.1498 65.7701 21.7898 66.0701 21.4598C66.7801 20.6698 67.6901 20.2698 68.8101 20.2598H68.7701C67.6201 20.2598 66.7101 20.6498 66.0401 21.4498ZM66.0701 27.1898C65.8101 26.8998 65.6001 26.5798 65.4501 26.2298C65.6001 26.5798 65.8001 26.8998 66.0401 27.1798C66.7101 27.9798 67.6201 28.3798 68.7801 28.3798H68.8201C67.6901 28.3698 66.7801 27.9798 66.0701 27.1898ZM65.3701 22.5898C65.1601 23.1098 65.0601 23.6798 65.0601 24.3198C65.0601 24.9698 65.1701 25.5598 65.3801 26.0798C65.1801 25.5598 65.0801 24.9698 65.0801 24.3198C65.0801 23.6798 65.1801 23.1098 65.3701 22.5898ZM72.2001 22.4598C72.4301 23.0098 72.5501 23.6298 72.5501 24.3198C72.5501 25.0098 72.4401 25.6198 72.2101 26.1598C72.4501 25.6098 72.5701 24.9998 72.5701 24.3098C72.5601 23.6298 72.4401 23.0098 72.2001 22.4598ZM68.8101 28.3798H68.8401C69.9901 28.3798 70.9101 27.9798 71.5801 27.1798C71.8401 26.8698 72.0501 26.5298 72.2001 26.1598C72.0401 26.5298 71.8201 26.8698 71.5501 27.1798C70.8501 27.9698 69.9401 28.3698 68.8101 28.3798ZM68.8501 20.2598H68.8201C69.9401 20.2698 70.8601 20.6698 71.5601 21.4598C71.8301 21.7598 72.0401 22.0998 72.2001 22.4698C72.0501 22.0998 71.8401 21.7698 71.5801 21.4698C70.9201 20.6598 70.0001 20.2598 68.8501 20.2598ZM66.0401 21.4498C65.7601 21.7798 65.5401 22.1498 65.3801 22.5598C65.5401 22.1498 65.7701 21.7898 66.0701 21.4598C66.7801 20.6698 67.6901 20.2698 68.8101 20.2598H68.7701C67.6201 20.2598 66.7101 20.6498 66.0401 21.4498ZM66.0701 27.1898C65.8101 26.8998 65.6001 26.5798 65.4501 26.2298C65.6001 26.5798 65.8001 26.8998 66.0401 27.1798C66.7101 27.9798 67.6201 28.3798 68.7801 28.3798H68.8201C67.6901 28.3698 66.7801 27.9798 66.0701 27.1898ZM65.3701 22.5898C65.1601 23.1098 65.0601 23.6798 65.0601 24.3198C65.0601 24.9698 65.1701 25.5598 65.3801 26.0798C65.1801 25.5598 65.0801 24.9698 65.0801 24.3198C65.0801 23.6798 65.1801 23.1098 65.3701 22.5898Z" fill="#252929"/>
        <path d="M71.5601 27.1798C70.8501 27.9698 69.9401 28.3698 68.8201 28.3798H68.8501C70.0001 28.3798 70.9201 27.9798 71.5901 27.1798C71.8501 26.8698 72.0601 26.5298 72.2101 26.1598C72.0501 26.5398 71.8301 26.8798 71.5601 27.1798ZM71.5601 21.4498C71.8301 21.7498 72.0401 22.0898 72.2001 22.4598C72.0501 22.0898 71.8401 21.7598 71.5801 21.4598C70.9101 20.6598 70.0001 20.2598 68.8401 20.2598H68.8101C69.9401 20.2698 70.8501 20.6598 71.5601 21.4498ZM65.3701 22.5898C65.1601 23.1098 65.0601 23.6798 65.0601 24.3198C65.0601 24.9698 65.1701 25.5598 65.3801 26.0798C65.1801 25.5598 65.0801 24.9698 65.0801 24.3198C65.0801 23.6798 65.1801 23.1098 65.3701 22.5898ZM72.2001 22.4598C72.4301 23.0098 72.5501 23.6298 72.5501 24.3198C72.5501 25.0098 72.4401 25.6198 72.2101 26.1598C72.4501 25.6098 72.5701 24.9998 72.5701 24.3098C72.5601 23.6298 72.4401 23.0098 72.2001 22.4598ZM68.8101 28.3798H68.8401C69.9901 28.3798 70.9101 27.9798 71.5801 27.1798C71.8401 26.8698 72.0501 26.5298 72.2001 26.1598C72.0401 26.5298 71.8201 26.8698 71.5501 27.1798C70.8501 27.9698 69.9401 28.3698 68.8101 28.3798ZM68.8501 20.2598H68.8201C69.9401 20.2698 70.8601 20.6698 71.5601 21.4598C71.8301 21.7598 72.0401 22.0998 72.2001 22.4698C72.0501 22.0998 71.8401 21.7698 71.5801 21.4698C70.9201 20.6598 70.0001 20.2598 68.8501 20.2598ZM66.0401 21.4498C65.7601 21.7798 65.5401 22.1498 65.3801 22.5598C65.5401 22.1498 65.7701 21.7898 66.0701 21.4598C66.7801 20.6698 67.6901 20.2698 68.8101 20.2598H68.7701C67.6201 20.2598 66.7101 20.6498 66.0401 21.4498ZM66.0701 27.1898C65.8101 26.8998 65.6001 26.5798 65.4501 26.2298C65.6001 26.5798 65.8001 26.8998 66.0401 27.1798C66.7101 27.9798 67.6201 28.3798 68.7801 28.3798H68.8201C67.6901 28.3698 66.7801 27.9798 66.0701 27.1898ZM65.3701 22.5898C65.1601 23.1098 65.0601 23.6798 65.0601 24.3198C65.0601 24.9698 65.1701 25.5598 65.3801 26.0798C65.1801 25.5598 65.0801 24.9698 65.0801 24.3198C65.0801 23.6798 65.1801 23.1098 65.3701 22.5898Z" fill="#252929"/>
        <path d="M50.8 20.1003C50.77 20.0803 50.75 20.0503 50.73 20.0303Z" fill="#252929"/>
        <path d="M77.87 29.6602H76.27V14.7002H77.87V29.6602Z" fill="#252929"/>
        <path d="M88.36 29.6597V27.9997C87.98 28.5097 87.5 28.9497 86.95 29.2997C86.39 29.6597 85.76 29.8297 85.05 29.8297C84.34 29.8297 83.72 29.7297 83.21 29.5297C82.7 29.3297 82.25 29.0297 81.86 28.6297C80.98 27.7597 80.53 26.6097 80.53 25.1897V18.9697H82.13V25.1497C82.13 26.1297 82.41 26.9197 82.96 27.4997C83.52 28.0797 84.24 28.3797 85.12 28.3797C86.02 28.3797 86.78 28.0797 87.41 27.4797C88.04 26.8697 88.35 26.0797 88.35 25.1297V18.9697H89.95V29.6597H88.36Z" fill="#252929"/>
        <path d="M99.03 21.8403C98.89 20.7303 97.99 20.1703 96.35 20.1703C94.7 20.1703 93.88 20.6803 93.88 21.7103C93.88 22.1403 94.05 22.4603 94.4 22.6803C94.75 22.9003 95.19 23.0803 95.71 23.2303C96.24 23.3703 96.81 23.5003 97.43 23.6303C98.05 23.7503 98.62 23.9203 99.15 24.1403C99.68 24.3603 100.12 24.6603 100.46 25.0503C100.81 25.4303 100.98 25.9603 100.98 26.6303C100.98 27.6703 100.59 28.4703 99.8 29.0103C99.02 29.5603 97.95 29.8303 96.61 29.8303C95.18 29.8303 94.05 29.4703 93.21 28.7603C92.44 28.1303 92.03 27.3103 91.97 26.3003H93.64C93.74 27.2803 94.3 27.9503 95.31 28.2903C95.68 28.4003 96.05 28.4603 96.41 28.4603C96.77 28.4603 97.11 28.4403 97.43 28.4003C97.74 28.3603 98.05 28.2803 98.35 28.1603C99.03 27.8903 99.38 27.4303 99.38 26.7703C99.38 26.3303 99.21 25.9903 98.86 25.7503C98.51 25.5103 98.07 25.3203 97.55 25.1703C97.02 25.0203 96.45 24.8803 95.83 24.7603C95.21 24.6403 94.64 24.4703 94.11 24.2603C93.58 24.0503 93.14 23.7503 92.79 23.3803C92.44 23.0103 92.27 22.5003 92.27 21.8403C92.27 20.8703 92.62 20.1203 93.33 19.5803C94.04 19.0503 95.08 18.7803 96.46 18.7803C97.77 18.7803 98.8 19.0903 99.56 19.7203C100.19 20.2503 100.55 20.9503 100.65 21.8203H99.03V21.8403Z" fill="#252929"/>
    </g>
    <defs>
        <clipPath id="clip0_337_3634">
            <rect width="102" height="46.64" fill="white" transform="translate(0 0.5)"/>
        </clipPath>
    </defs>
</svg>
