<svg width="56" height="57" viewBox="0 0 56 57" fill="none" xmlns="http://www.w3.org/2000/svg">
    <g opacity="0.3">
        <path fill-rule="evenodd" clip-rule="evenodd" d="M11.0301 6.82899C11.7427 6.13085 12.7432 5.67567 14.6324 5.42682C16.5772 5.17064 19.1548 5.16663 22.8506 5.16663H33.1494C36.8452 5.16663 39.4228 5.17064 41.3676 5.42682C43.2569 5.67567 44.2573 6.13085 44.9699 6.82899C45.6825 7.52713 46.1471 8.50732 46.4011 10.3583C46.6626 12.2637 46.6667 14.789 46.6667 18.4099V36.6982L17.1398 36.6981C15.0338 36.6974 13.5967 36.6969 12.3643 37.0205C11.2624 37.3098 10.2403 37.7822 9.33334 38.4032V18.4099C9.33334 14.789 9.33745 12.2637 9.59892 10.3583C9.85292 8.50732 10.3175 7.52713 11.0301 6.82899ZM17.7012 13.9955C16.6347 13.9955 15.7701 14.8425 15.7701 15.8873C15.7701 16.9322 16.6347 17.7792 17.7012 17.7792H38.2989C39.3653 17.7792 40.2299 16.9322 40.2299 15.8873C40.2299 14.8425 39.3653 13.9955 38.2989 13.9955H17.7012ZM15.7701 24.7162C15.7701 23.6713 16.6347 22.8243 17.7012 22.8243H30.5747C31.6412 22.8243 32.5058 23.6713 32.5058 24.7162C32.5058 25.761 31.6412 26.6081 30.5747 26.6081H17.7012C16.6347 26.6081 15.7701 25.761 15.7701 24.7162Z" fill="#2F2E2E"/>
        <path d="M17.438 40.4819C14.9192 40.4819 14.0387 40.4982 13.3639 40.6753C11.5118 41.1615 10.0354 42.5103 9.40223 44.2634C9.44137 45.1558 9.50273 45.9407 9.59892 46.6416C9.85292 48.4926 10.3175 49.4728 11.0301 50.1709C11.7427 50.8691 12.7432 51.3243 14.6324 51.5731C16.5772 51.8293 19.1548 51.8333 22.8506 51.8333H33.1494C36.8452 51.8333 39.4228 51.8293 41.3676 51.5731C43.2569 51.3243 44.2573 50.8691 44.9699 50.1709C45.4754 49.6757 45.856 49.0386 46.1253 48.0495H17.7012C16.6347 48.0495 15.7701 47.2025 15.7701 46.1576C15.7701 45.1128 16.6347 44.2657 17.7012 44.2657H46.5977C46.6454 43.1785 46.6602 41.9315 46.6647 40.4819H17.438Z" fill="#2F2E2E"/>
    </g>
</svg>
