<svg width="16" height="16" viewBox="0 0 16 16" fill="none" xmlns="http://www.w3.org/2000/svg">
    <path fill-rule="evenodd" clip-rule="evenodd" d="M14.6666 8.00016C14.6666 11.6821 11.6818 14.6668 7.99992 14.6668C4.31802 14.6668 1.33325 11.6821 1.33325 8.00016C1.33325 4.31826 4.31802 1.3335 7.99992 1.3335C11.6818 1.3335 14.6666 4.31826 14.6666 8.00016ZM10.6868 5.97994C10.8821 6.1752 10.8821 6.49179 10.6868 6.68705L7.35347 10.0204C7.15821 10.2156 6.84163 10.2156 6.64637 10.0204L5.31303 8.68705C5.11777 8.49179 5.11777 8.1752 5.31303 7.97994C5.50829 7.78468 5.82488 7.78468 6.02014 7.97994L6.99992 8.95972L8.48981 7.46983L9.9797 5.97994C10.175 5.78468 10.4915 5.78468 10.6868 5.97994Z" fill="#0FA958"/>
</svg>
