<svg width="16" height="16" viewBox="0 0 16 16" fill="none" xmlns="http://www.w3.org/2000/svg">
    <g clip-path="url(#clip0_2000_4852)">
        <path d="M5.49999 15.075V11.625L2.92499 13.525C3.64999 14.2 4.52499 14.725 5.49999 15.075ZM10.5 15.075C11.475 14.725 12.35 14.2 13.075 13.525L10.5 11.6V15.075ZM0.924988 10.5C0.999988 10.75 1.09999 10.975 1.22499 11.225L2.19999 10.5H0.924988ZM13.8 10.5L14.775 11.225C14.875 11 14.975 10.75 15.075 10.5H13.8Z" fill="#2A5F9E"/>
        <path d="M5.87502 9.5H0.650024C0.725024 9.85 0.825024 10.175 0.925024 10.5H2.20002L1.22502 11.225C1.42502 11.65 1.65002 12.025 1.92502 12.4L4.50002 10.5H5.50002V11L2.57502 13.15L2.92502 13.5L5.50002 11.625V15.075C5.82502 15.2 6.15002 15.275 6.50002 15.35V9.5H5.87502ZM15.35 9.5H9.50002V15.35C9.85003 15.275 10.175 15.175 10.5 15.075V11.625L13.075 13.5C13.425 13.175 13.725 12.825 14.025 12.45L11.35 10.5H13.05L14.575 11.625C14.65 11.5 14.725 11.35 14.775 11.225L13.8 10.5H15.075C15.175 10.175 15.275 9.85 15.35 9.5Z" fill="white"/>
        <path d="M1.92499 12.4C2.12499 12.675 2.32499 12.925 2.54999 13.175L5.49999 11.025V10.525H4.49999L1.92499 12.4ZM11.375 10.5L14.05 12.45C14.15 12.325 14.225 12.2 14.325 12.075C14.35 12.05 14.35 12.025 14.375 12.025C14.45 11.9 14.55 11.75 14.625 11.625L13.05 10.5H11.375Z" fill="#ED4C5C"/>
        <path d="M10.5 0.924805V4.3748L13.075 2.4748C12.35 1.7998 11.475 1.2748 10.5 0.924805ZM5.49999 0.924805C4.52499 1.2748 3.64999 1.7998 2.92499 2.4748L5.49999 4.3998V0.924805ZM15.075 5.4998C15 5.2498 14.9 5.02481 14.775 4.7748L13.8 5.4998H15.075ZM2.19999 5.4998L1.22499 4.7748C1.12499 5.02481 1.02499 5.2498 0.924988 5.4998H2.19999Z" fill="#2A5F9E"/>
        <path d="M10.125 6.4999H15.325C15.25 6.1499 15.15 5.8249 15.05 5.4999H13.775L14.75 4.7749C14.55 4.3499 14.325 3.9749 14.05 3.5999L11.5 5.4999H10.5V4.9999L13.425 2.8499L13.075 2.4999L10.5 4.3749V0.924902C10.175 0.799902 9.85003 0.724902 9.50002 0.649902V6.4999H10.125ZM0.650024 6.4999H6.50002V0.649902C6.15002 0.724902 5.82502 0.824902 5.50002 0.924902V4.3749L2.92502 2.4999C2.57502 2.8249 2.27502 3.1749 1.97502 3.5499L4.65002 5.4999H2.95002L1.42502 4.3749C1.35002 4.4999 1.27502 4.6499 1.22502 4.7749L2.20002 5.4999H0.925024C0.825024 5.8249 0.725024 6.1499 0.650024 6.4999Z" fill="white"/>
        <path d="M14.075 3.6002C13.875 3.3252 13.675 3.0752 13.45 2.8252L10.5 4.9752V5.4752H11.5L14.075 3.6002ZM4.62502 5.5002L1.97502 3.5502C1.87502 3.6752 1.80002 3.8002 1.70002 3.9252C1.67502 3.9502 1.67502 3.9752 1.65002 3.9752C1.57502 4.1002 1.47502 4.2502 1.40002 4.3752L2.92502 5.5002H4.62502Z" fill="#ED4C5C"/>
        <path d="M15.35 6.5H9.5V0.65C9.025 0.55 8.525 0.5 8 0.5C7.475 0.5 6.975 0.55 6.5 0.65V6.5H0.65C0.55 6.975 0.5 7.475 0.5 8C0.5 8.525 0.55 9.025 0.65 9.5H6.5V15.35C6.975 15.45 7.475 15.5 8 15.5C8.525 15.5 9.025 15.45 9.5 15.35V9.5H15.35C15.45 9.025 15.5 8.525 15.5 8C15.5 7.475 15.45 6.975 15.35 6.5Z" fill="#ED4C5C"/>
    </g>
    <defs>
        <clipPath id="clip0_2000_4852">
            <rect width="16" height="16" fill="white"/>
        </clipPath>
    </defs>
</svg>
