<svg width="17" height="16" viewBox="0 0 17 16" fill="none" xmlns="http://www.w3.org/2000/svg">
<g clip-path="url(#clip0_63_469)">
<path d="M16.2166 11.1747C16.603 11.5621 16.8199 12.0869 16.8199 12.634C16.8199 13.1811 16.603 13.7059 16.2166 14.0933L15.6086 14.7933C10.148 20.0187 -3.13737 6.73733 2.00863 1.25999L2.77529 0.593328C3.16305 0.217692 3.68311 0.00982045 4.22296 0.0146862C4.76281 0.0195519 5.27903 0.236763 5.65996 0.619328C5.68063 0.639328 6.91529 2.24466 6.91529 2.24466C7.28057 2.63036 7.48382 3.14158 7.48307 3.67279C7.48233 4.20401 7.27765 4.71466 6.91129 5.09933L6.13929 6.06999C6.56662 7.10801 7.1948 8.05139 7.98775 8.84594C8.7807 9.64049 9.72281 10.2706 10.76 10.7L11.7366 9.92333C12.1205 9.556 12.6312 9.35064 13.1625 9.3499C13.6938 9.34915 14.205 9.55308 14.59 9.91933C14.59 9.91933 16.196 11.1547 16.2166 11.1747ZM15.3 12.144C15.3 12.144 13.7046 10.916 13.684 10.896C13.5466 10.7598 13.361 10.6834 13.1676 10.6834C12.9742 10.6834 12.7886 10.7598 12.6513 10.896C12.6333 10.9133 11.2886 11.9853 11.2886 11.9853C11.198 12.0575 11.0902 12.1047 10.9757 12.1225C10.8613 12.1403 10.7442 12.1279 10.636 12.0867C9.29157 11.5865 8.07044 10.8031 7.05535 9.78962C6.04026 8.77614 5.25494 7.55625 4.75263 6.21266C4.70809 6.10296 4.69357 5.98339 4.71056 5.86622C4.72755 5.74905 4.77543 5.63852 4.84929 5.54599C4.84929 5.54599 5.92129 4.20333 5.93929 4.18599C6.07547 4.04865 6.15188 3.86307 6.15188 3.66966C6.15188 3.47625 6.07547 3.29067 5.93929 3.15333C5.91929 3.13333 4.69129 1.53666 4.69129 1.53666C4.55189 1.41167 4.36996 1.34472 4.18279 1.34956C3.99562 1.35439 3.81739 1.43064 3.68463 1.56266L2.91796 2.22933C-0.843375 6.75133 10.6713 17.6273 14.6333 13.8847L15.2413 13.184C15.3846 13.0525 15.471 12.8702 15.4819 12.6759C15.4929 12.4817 15.4276 12.2908 15.3 12.144Z" fill="#2B3F6C"/>
</g>
<defs>
<clipPath id="clip0_63_469">
<rect width="16" height="16" fill="white" transform="translate(0.833252)"/>
</clipPath>
</defs>
</svg>
