<svg width="56" height="57" viewBox="0 0 56 57" fill="none" xmlns="http://www.w3.org/2000/svg">
    <g opacity="0.3">
        <path d="M51.3334 28.4998C51.3334 41.3865 40.8867 51.8332 28.0001 51.8332C15.1134 51.8332 4.66675 41.3865 4.66675 28.4998C4.66675 15.6132 15.1134 5.1665 28.0001 5.1665C40.8867 5.1665 51.3334 15.6132 51.3334 28.4998Z" fill="#2F2E2E"/>
        <path fill-rule="evenodd" clip-rule="evenodd" d="M28.0001 17.4165C28.9666 17.4165 29.7501 18.2 29.7501 19.1665V27.775L35.0709 33.0957C35.7543 33.7792 35.7543 34.8872 35.0709 35.5706C34.3874 36.254 33.2794 36.254 32.596 35.5706L26.7626 29.7373C26.4345 29.4091 26.2501 28.964 26.2501 28.4998V19.1665C26.2501 18.2 27.0336 17.4165 28.0001 17.4165Z" fill="white"/>
    </g>
</svg>
