<svg width="56" height="57" viewBox="0 0 56 57" fill="none" xmlns="http://www.w3.org/2000/svg">
    <g opacity="0.3">
        <path d="M6.42744 34.8375L7.63526 39.3452C9.04517 44.607 9.75012 47.2379 11.3483 48.9443C12.6102 50.2916 14.2432 51.2344 16.041 51.6536C18.3178 52.1845 20.9487 51.4795 26.2105 50.0696L26.2106 50.0696C31.4724 48.6597 34.1033 47.9547 35.8097 46.3566C35.9513 46.2239 36.0884 46.0872 36.221 45.9466C35.4412 45.8811 34.6547 45.7557 33.8554 45.5967C32.2312 45.2738 30.3012 44.7566 28.0187 44.145L27.7695 44.0782L27.7118 44.0628C25.2282 43.3973 23.1533 42.8402 21.4965 42.2417C19.7542 41.6123 18.1712 40.8364 16.8269 39.5773C14.9743 37.8423 13.6779 35.5968 13.1015 33.1249C12.6833 31.3312 12.8029 29.5722 13.129 27.7486C13.4414 26.0012 14.0026 23.9069 14.675 21.3978L14.675 21.3978L15.9219 16.7442L15.9658 16.5806C11.4845 17.7877 9.12577 18.502 7.55277 19.9752C6.20547 21.2371 5.26262 22.8702 4.84345 24.6679C4.31257 26.9447 5.01753 29.5756 6.42744 34.8375Z" fill="#2F2E2E"/>
        <path fill-rule="evenodd" clip-rule="evenodd" d="M48.6015 25.5025L47.3937 30.0101C45.9838 35.272 45.2788 37.9029 43.6807 39.6093C42.4188 40.9566 40.7857 41.8994 38.988 42.3186C38.7634 42.371 38.5353 42.4113 38.3016 42.4401C36.1664 42.7035 33.5611 42.0054 28.8184 40.7346C23.5565 39.3247 20.9256 38.6197 19.2193 37.0216C17.872 35.7597 16.9291 34.1266 16.51 32.3289C15.9791 30.0521 16.684 27.4212 18.0939 22.1593L19.3018 17.6516C19.5045 16.8951 19.6928 16.1924 19.8711 15.5396C20.9329 11.6522 21.6465 9.51346 23.0148 8.05253C24.2767 6.70523 25.9097 5.76238 27.7075 5.3432C29.9843 4.81233 32.6152 5.51728 37.8771 6.92719C43.1389 8.3371 45.7698 9.04206 47.4762 10.6402C48.8235 11.9021 49.7663 13.5352 50.1855 15.3329C50.7164 17.6097 50.0114 20.2406 48.6015 25.5025ZM25.7889 23.3802C26.039 22.4467 26.9986 21.8927 27.9322 22.1428L39.2013 25.1624C40.1349 25.4125 40.6889 26.3721 40.4388 27.3057C40.1886 28.2392 39.229 28.7932 38.2955 28.5431L27.0263 25.5235C26.0927 25.2734 25.5387 24.3138 25.7889 23.3802ZM23.9762 30.141C24.2264 29.2074 25.186 28.6534 26.1195 28.9035L32.881 30.7153C33.8146 30.9654 34.3686 31.925 34.1184 32.8586C33.8683 33.7921 32.9087 34.3462 31.9751 34.096L25.2137 32.2843C24.2801 32.0341 23.7261 31.0745 23.9762 30.141Z" fill="#2F2E2E"/>
    </g>
</svg>
