<svg width="14" height="15" viewBox="0 0 14 15" fill="none" xmlns="http://www.w3.org/2000/svg">
    <g clip-path="url(#clip0_2510_1128)">
        <path d="M8.97918 2.86446L8.47745 3.42194L8.97918 2.86446ZM11.2885 4.94282L10.7867 5.50029L11.2885 4.94282ZM12.6315 6.42306L11.9463 6.72819L11.9463 6.72819L12.6315 6.42306ZM1.85004 12.6498L2.38037 12.1194L2.38037 12.1194L1.85004 12.6498ZM12.1499 12.6498L11.6195 12.1194L11.6195 12.1194L12.1499 12.6498ZM8.16663 12.5832H5.83329V14.0832H8.16663V12.5832ZM1.91663 8.6665V6.33317H0.416626V8.6665H1.91663ZM12.0833 8.41153V8.6665H13.5833V8.41153H12.0833ZM8.47745 3.42194L10.7867 5.50029L11.7902 4.38535L9.4809 2.30699L8.47745 3.42194ZM13.5833 8.41153C13.5833 7.45426 13.5984 6.75078 13.3166 6.11793L11.9463 6.72819C12.0682 7.00172 12.0833 7.32176 12.0833 8.41153H13.5833ZM10.7867 5.50029C11.5968 6.22931 11.8245 6.45466 11.9463 6.72819L13.3166 6.11793C13.0347 5.48508 12.5017 5.02573 11.7902 4.38535L10.7867 5.50029ZM5.85067 2.4165C6.79705 2.4165 7.07626 2.42808 7.31998 2.5216L7.85737 1.12117C7.29383 0.904925 6.68346 0.916504 5.85067 0.916504V2.4165ZM9.4809 2.30699C8.86485 1.75255 8.4208 1.33738 7.85737 1.12117L7.31998 2.5216C7.5638 2.61517 7.77767 2.79213 8.47745 3.42194L9.4809 2.30699ZM5.83329 12.5832C4.71215 12.5832 3.94674 12.5816 3.37293 12.5044C2.82069 12.4302 2.55951 12.2986 2.38037 12.1194L1.31971 13.1801C1.824 13.6844 2.45449 13.8944 3.17306 13.9911C3.87005 14.0848 4.75455 14.0832 5.83329 14.0832V12.5832ZM0.416626 8.6665C0.416626 9.74525 0.415033 10.6298 0.508741 11.3267C0.60535 12.0453 0.815428 12.6758 1.31971 13.1801L2.38037 12.1194C2.20124 11.9403 2.06961 11.6791 1.99537 11.1269C1.91822 10.5531 1.91663 9.78765 1.91663 8.6665H0.416626ZM8.16663 14.0832C9.24537 14.0832 10.1299 14.0848 10.8269 13.9911C11.5454 13.8944 12.1759 13.6844 12.6802 13.1801L11.6195 12.1194C11.4404 12.2986 11.1792 12.4302 10.627 12.5044C10.0532 12.5816 9.28777 12.5832 8.16663 12.5832V14.0832ZM12.0833 8.6665C12.0833 9.78765 12.0817 10.5531 12.0046 11.1269C11.9303 11.6791 11.7987 11.9403 11.6195 12.1194L12.6802 13.1801C13.1845 12.6758 13.3946 12.0453 13.4912 11.3267C13.5849 10.6298 13.5833 9.74525 13.5833 8.6665H12.0833ZM1.91663 6.33317C1.91663 5.21202 1.91822 4.44661 1.99537 3.87281C2.06961 3.32057 2.20124 3.05938 2.38037 2.88025L1.31971 1.81959C0.815428 2.32388 0.60535 2.95437 0.508741 3.67293C0.415033 4.36992 0.416626 5.25443 0.416626 6.33317H1.91663ZM5.85067 0.916504C4.76607 0.916504 3.87747 0.914925 3.17785 1.00856C2.45722 1.10501 1.82458 1.31472 1.31971 1.81959L2.38037 2.88025C2.55892 2.7017 2.82086 2.56971 3.37683 2.4953C3.9538 2.41808 4.7238 2.4165 5.85067 2.4165V0.916504Z" fill="#979696"/>
        <path d="M7.58325 1.9585V3.41683C7.58325 4.79176 7.58325 5.47922 8.01039 5.90636C8.43752 6.3335 9.12499 6.3335 10.4999 6.3335H12.8333" stroke="#979696" stroke-width="1.5"/>
    </g>
    <defs>
        <clipPath id="clip0_2510_1128">
            <rect width="14" height="14" fill="white" transform="translate(0 0.5)"/>
        </clipPath>
    </defs>
</svg>
