<svg width="17" height="17" viewBox="0 0 17 17" fill="none" xmlns="http://www.w3.org/2000/svg">
    <path fill-rule="evenodd" clip-rule="evenodd" d="M3.45363 7.50777C3.63334 7.29811 3.94899 7.27383 4.15866 7.45354L8.49993 11.1746L12.8412 7.45354C13.0509 7.27383 13.3665 7.29811 13.5462 7.50778C13.7259 7.71744 13.7017 8.03309 13.492 8.2128L8.82532 12.2128C8.63808 12.3733 8.36178 12.3733 8.17453 12.2128L3.50787 8.2128C3.2982 8.03309 3.27392 7.71744 3.45363 7.50777Z" fill="#2F2E2E"/>
    <path d="M3.83328 4.6665C3.62405 4.6665 3.43694 4.79679 3.36434 4.99303C3.29175 5.18927 3.34902 5.40996 3.50789 5.54613L8.17456 9.54613C8.3618 9.70663 8.6381 9.70663 8.82535 9.54613L13.492 5.54613C13.6509 5.40996 13.7082 5.18927 13.6356 4.99303C13.563 4.79679 13.3759 4.6665 13.1666 4.6665H3.83328Z" fill="#2F2E2E"/>
</svg>
