<svg width="56" height="57" viewBox="0 0 56 57" fill="none" xmlns="http://www.w3.org/2000/svg">
    <g opacity="0.3">
        <path fill-rule="evenodd" clip-rule="evenodd" d="M21.2323 6.09422C21.5804 6.99587 21.1316 8.00896 20.23 8.35702C19.9 8.48441 19.5738 8.61969 19.2519 8.76263C18.3685 9.15479 17.3345 8.75659 16.9423 7.87323C16.5502 6.98987 16.9484 5.95585 17.8317 5.56369C18.2062 5.39743 18.5856 5.24006 18.9695 5.09185C19.8712 4.74379 20.8843 5.19257 21.2323 6.09422ZM13.178 10.3939C13.8445 11.0938 13.8175 12.2015 13.1176 12.868C12.8617 13.1118 12.6118 13.3617 12.3681 13.6176C11.7015 14.3175 10.5938 14.3445 9.89395 13.6779C9.19407 13.0114 9.16704 11.9037 9.83358 11.2038C10.1165 10.9067 10.4067 10.6165 10.7038 10.3335C11.4037 9.667 12.5114 9.69403 13.178 10.3939ZM7.37327 17.4423C8.25663 17.8344 8.65483 18.8685 8.26267 19.7518C8.11973 20.0738 7.98445 20.3999 7.85705 20.7299C7.509 21.6316 6.49591 22.0804 5.59426 21.7323C4.69261 21.3842 4.24383 20.3712 4.59189 19.4695C4.7401 19.0856 4.89747 18.7062 5.06373 18.3317C5.45589 17.4483 6.48991 17.0501 7.37327 17.4423ZM4.71587 26.1761C5.68208 26.1994 6.44643 27.0016 6.42309 27.9678C6.41882 28.1446 6.41667 28.322 6.41667 28.5C6.41667 28.6779 6.41882 28.8553 6.42309 29.0321C6.44643 29.9983 5.68208 30.8005 4.71587 30.8238C3.74965 30.8472 2.94745 30.0828 2.92411 29.1166C2.91916 28.9116 2.91667 28.7061 2.91667 28.5C2.91667 28.2938 2.91916 28.0883 2.92411 27.8833C2.94745 26.9171 3.74965 26.1527 4.71587 26.1761ZM50.4057 35.2676C51.3074 35.6157 51.7562 36.6288 51.4081 37.5304C51.2599 37.9144 51.1025 38.2937 50.9363 38.6682C50.5441 39.5516 49.5101 39.9498 48.6267 39.5576C47.7434 39.1655 47.3452 38.1315 47.7373 37.2481C47.8803 36.9261 48.0156 36.6 48.1429 36.27C48.491 35.3683 49.5041 34.9196 50.4057 35.2676ZM5.59426 35.2676C6.49591 34.9196 7.509 35.3683 7.85706 36.27C7.98445 36.6 8.11973 36.9261 8.26267 37.2481C8.65483 38.1315 8.25663 39.1655 7.37327 39.5576C6.48991 39.9498 5.45589 39.5516 5.06373 38.6682C4.89747 38.2937 4.7401 37.9144 4.59189 37.5304C4.24383 36.6288 4.69261 35.6157 5.59426 35.2676ZM46.106 43.322C46.8059 43.9885 46.833 45.0962 46.1664 45.7961C45.8835 46.0932 45.5933 46.3834 45.2962 46.6664C44.5963 47.3329 43.4886 47.3059 42.822 46.606C42.1555 45.9061 42.1825 44.7984 42.8824 44.1319C43.1383 43.8882 43.3882 43.6382 43.6319 43.3823C44.2985 42.6825 45.4062 42.6554 46.106 43.322ZM9.89395 43.322C10.5938 42.6554 11.7015 42.6825 12.3681 43.3823C12.6118 43.6382 12.8617 43.8882 13.1176 44.1319C13.8175 44.7984 13.8445 45.9061 13.178 46.606C12.5114 47.3059 11.4037 47.3329 10.7038 46.6664C10.4067 46.3834 10.1165 46.0932 9.83359 45.7961C9.16704 45.0962 9.19407 43.9885 9.89395 43.322ZM16.9423 49.1267C17.3345 48.2433 18.3685 47.8451 19.2519 48.2373C19.5738 48.3802 19.9 48.5155 20.23 48.6429C21.1316 48.991 21.5804 50.004 21.2323 50.9057C20.8843 51.8074 19.8712 52.2561 18.9695 51.9081C18.5856 51.7599 18.2062 51.6025 17.8317 51.4362C16.9484 51.0441 16.5502 50.01 16.9423 49.1267ZM39.0577 49.1267C39.4498 50.01 39.0516 51.0441 38.1683 51.4362C37.7938 51.6025 37.4144 51.7599 37.0305 51.9081C36.1288 52.2561 35.1157 51.8074 34.7677 50.9057C34.4196 50.004 34.8684 48.991 35.77 48.6429C36.1 48.5155 36.4262 48.3802 36.7481 48.2373C37.6315 47.8451 38.6655 48.2433 39.0577 49.1267ZM25.6761 51.7841C25.6995 50.8179 26.5017 50.0535 27.4679 50.0769C27.6447 50.0811 27.8221 50.0833 28 50.0833C28.1779 50.0833 28.3553 50.0811 28.5321 50.0769C29.4983 50.0535 30.3005 50.8179 30.3239 51.7841C30.3472 52.7503 29.5829 53.5525 28.6167 53.5759C28.4117 53.5808 28.2061 53.5833 28 53.5833C27.7939 53.5833 27.5883 53.5808 27.3833 53.5759C26.4171 53.5525 25.6528 52.7503 25.6761 51.7841Z" fill="#2F2E2E"/>
        <path fill-rule="evenodd" clip-rule="evenodd" d="M28 6.91663C39.9201 6.91663 49.5833 16.5798 49.5833 28.5C49.5833 29.4665 50.3668 30.25 51.3333 30.25C52.2998 30.25 53.0833 29.4665 53.0833 28.5C53.0833 14.6468 41.8531 3.41663 28 3.41663C27.0335 3.41663 26.25 4.20013 26.25 5.16663C26.25 6.13312 27.0335 6.91663 28 6.91663Z" fill="#2F2E2E"/>
        <path fill-rule="evenodd" clip-rule="evenodd" d="M28 19.75C28.9665 19.75 29.75 20.5335 29.75 21.5V29.0833H37.3333C38.2998 29.0833 39.0833 29.8668 39.0833 30.8333C39.0833 31.7998 38.2998 32.5833 37.3333 32.5833H28C27.0335 32.5833 26.25 31.7998 26.25 30.8333V21.5C26.25 20.5335 27.0335 19.75 28 19.75Z" fill="#2F2E2E"/>
    </g>
</svg>
