<svg width="56" height="57" viewBox="0 0 56 57" fill="none" xmlns="http://www.w3.org/2000/svg">
    <g opacity="0.3">
        <circle cx="21.0023" cy="14.5" r="9.33333" fill="#2F2E2E"/>
        <ellipse cx="21.0023" cy="40.169" rx="16.3333" ry="9.33333" fill="#2F2E2E"/>
        <path d="M48.9991 40.1677C48.9991 44.0337 44.2495 47.1677 38.4505 47.1677C40.159 45.3002 41.3337 42.9562 41.3337 40.171C41.3337 37.3825 40.1563 35.0363 38.4446 33.1678C44.2435 33.1678 48.9991 36.3017 48.9991 40.1677Z" fill="#2F2E2E"/>
        <path d="M41.9991 14.5017C41.9991 18.3677 38.8651 21.5017 34.9991 21.5017C34.1561 21.5017 33.3479 21.3527 32.5994 21.0796C33.7033 19.138 34.3337 16.8922 34.3337 14.4991C34.3337 12.1078 33.7042 9.86352 32.6019 7.92296C33.3497 7.6504 34.157 7.50171 34.9991 7.50171C38.8651 7.50171 41.9991 10.6357 41.9991 14.5017Z" fill="#2F2E2E"/>
    </g>
</svg>
